<?xml version="1.0" encoding="UTF-8"?>
<svg id="Ebene_2" data-name="Ebene 2" xmlns="http://www.w3.org/2000/svg" viewBox="0 0 1051.39 831.37">
  <defs>
    <style>
      .cls-1 {
        fill: #fff;
      }
    </style>
  </defs>
  <g id="Layer_1" data-name="Layer 1">
    <path class="cls-1" d="M880.27,807.27c-6.45-3.82-12.07-8.9-16.51-14.94-3.74-4.5-7.75-8.76-12-12.79-2.25-2.25-4.56-4.51-6.81-6.86-3.38-3.63-6.76-7.35-9.8-10.97-4.9-5.59-10.29-11.41-15.77-16.75-8.87-8.72-16.8-16.26-24.2-23.07-2.84-2.6-5.44-5.44-7.99-8.18-1.62-1.81-3.33-3.63-4.9-5.39l-8.43-8.23c-4.9-4.9-10.09-9.8-14.7-14.99-7.05-7.69-14.7-15.29-21.85-22.58-4.9-4.9-9.8-9.8-14.7-14.7-1.52-1.57-3.18-3.04-4.9-4.56-1.71-1.52-3.33-2.89-4.9-4.46-11.51-11.56-23.12-23.37-34.29-34.83l-2.25-2.3c-8.72-8.87-16.61-16.9-24.5-25.08-1.57-1.9-3.91-3-6.37-2.99h-4.21c-8.72,0-17.54,0-25.77-.29-2.25,0-4.56-.25-6.76-.39-2.2-.15-4.9-.34-7.59-.34h-.44l-34.73.39c-12.79,0-26.01.34-39.19.39h-70.25c-4.9,0-9.16,0-13.03-.49-7.1-.64-14.31-.73-20.38-.73h-30.28c-3.97,0-8.03,0-12,.49l-8.38.39h-29.79c-3.92,0-7.25,0-10.39.34-7.01.44-14.11.54-21.02.64h-11.56c-1.26.08-2.52.08-3.77,0-4.9-.44-9.8-.64-15.82-.64h-117.63c-8.77-.39-18.22-.54-29.74-.54h-67.8c-6.55-.2-13.05-1.31-19.3-3.28-14.5-4.41-26.34-14.96-32.38-28.86-3.22-6.85-5.38-14.15-6.42-21.65-.69-3.64-.69-7.38,0-11.02.4-1.88.55-3.81.44-5.73-.49-13.82-.78-27.83-1.32-41.74v-.98c-.3-3.93-.12-7.88.54-11.76.44-3.41.44-6.87,0-10.29-.26-2.56-.34-5.13-.24-7.69.49-12.69.49-25.67.54-38.16v-21.07c-.29-7.89-.14-15.79.44-23.66.74-9.47.74-18.99,0-28.46-.64-8.72-.69-17.54-.69-26.06v-15.14c0-5.05-.39-10.73-.59-16.02-.54-13.82-1.08-28.17-.44-42.33.29-6.07.34-12.3.39-18.37-.07-10.09.38-20.18,1.32-30.23.45-5.64.53-11.3.24-16.95,0-4.36-.29-8.87,0-13.37.78-16.71.73-33.71.73-50.17v-24.5c.51-23.45,14.86-44.37,36.55-53.3,8.84-3.3,18.2-4.96,27.63-4.9h28.66c4.36,0,8.82,0,13.18-.39s8.97-.39,13.47-.39c3.48,0,6.56,0,9.5.34h1.47c1.64-.03,3.27-.14,4.9-.34,1.67,0,3.38-.34,5.14-.39h11.71c17.64-.34,35.91-.69,53.89-.83l11.12-.2h16.95c10.63,0,19.3,0,27.19.69h1.62c1.96,0,3.97,0,6.12-.39l4.51-.34h4.16c4.21,0,8.43.29,12.49.54,4.07.24,7.99.59,11.95.59h39.58c5.14,0,9.16,0,13.13-.24s9.41,0,14.7,0c8.87,0,17.83,0,26.55.44,7.25,0,14.7.39,22.14.44h84.9c8.28,0,16.85-.34,24.5-.64h8.28c3.28-.05,6.55.16,9.8.64,1.1.19,2.22.27,3.33.24,1.96,0,4.02,0,6.12-.39,2.32-.29,4.66-.45,7.01-.49h3.77c11.12.29,22.58.59,33.85.59,6.86,0,13.08,0,18.96-.34h3.97c4.36,0,8.67.24,12.88.49,4.21.24,8.33.49,12.39.49h4.9c3.82,0,7.84-.29,12.64-.29h47.77c6.76,0,12.39.24,17.64.73,1.79.2,3.59.3,5.39.29,1.93,0,3.86-.1,5.78-.29,7.05-.59,14.7-.88,24.5-.88h31.16c11.41,0,24.5-.39,36.99-.39h3.33c15.09,0,30.37.49,45.17.93l22.68.59h23.76c5.44,0,10.97,0,16.36-.24,5.39-.24,10.97,0,16.46,0,7.15,0,13.13,0,18.76.59,20.67.58,39.34,12.47,48.6,30.96,6.61,13.52,6.81,27.73,6.52,41.1-.29,10.73,0,22.34.34,35.52.69,17.29.88,32.73.59,47.23,0,5.39.24,10.83.64,16.12l.29,4.41c.74,9.62.74,19.28,0,28.9-.66,8.72-.66,17.49,0,26.21.44,7.59,0,15.14,0,22.44v9.8c0,7.2-.24,14.7-.39,21.7-.39,18.71-.78,38.11,0,57.12v.93c.08,1.11.08,2.22,0,3.33-.76,11.01-.76,22.06,0,33.07.24,5.58.49,11.41.54,17.2v7.79c.33,9.21.15,18.44-.54,27.63-.76,5-.64,10.08.34,15.04.28,1.46.28,2.95,0,4.41-1.05,9.48-1.4,19.03-1.03,28.56v19.6c-.27,8.75-1.62,17.44-4.02,25.87-4.9,15.82-15.58,27.04-34.29,35.42-7.55,3.37-15.74,5.04-24.01,4.9h-8.18c-6.52,0-13.13,0-19.6.29-6.47.29-13.13.34-19.6.34h-24.59c-5.14,0-9.41,0-13.47-.49h-22.14c-10.88,0-21.7.25-32.53.44h-2.11c0,.64,0,1.32.34,1.76.98,4.9,2.11,10.09,3.14,15.04,3.28,14.01,5.79,28.19,7.54,42.48.23,1.99.64,3.96,1.22,5.88,2.21,7.82,3.85,15.8,4.9,23.86v2.01c.65,7.18,2.3,14.24,4.9,20.97,1.02,2.06,1.55,4.32,1.57,6.61.11,6.65,1.16,13.25,3.14,19.6.54,2.16,1.13,4.41,1.62,6.66,4.21,18.76,8.38,37.87,12.35,56.34l2.65,12.2c1.21,5.3,1.69,10.74,1.42,16.17l-.29,5.98-5.1-2.35Z"/>
    <path d="M896.78,831.37c-2.27-.78-4.23-2.28-5.58-4.26-14.31-16.61-30.52-31.35-45.56-47.23-12.49-13.18-26.41-24.89-38.56-38.31-10.04-11.07-20.18-22-30.72-32.58-7.2-7.2-14.06-14.7-21.31-21.85-17.2-16.61-33.36-34.29-49.77-51.44-5.58-5.93-11.61-11.56-17.34-17.44l-28.02-28.81c-3.67-3.72-7.35-7.4-10.97-11.17-1.43-1.41-3.46-2.03-5.44-1.67-10.14.59-20.38.59-30.57,1.03-11.37.49-22.83,0-34.29-.34h-41.74l-37.97-.29c-2.25-.15-4.51-.15-6.76,0-12.15,1.37-24.5-.39-36.5,0-6.96,0-13.91.39-20.82.49l-29.79.44h-3.72c-24.1,1.08-48.21-.39-72.26,0-11.22,0-22.49-1.96-33.51-.88-11.02,1.08-23.22-1.42-34.93.64-8.4.69-16.83.69-25.23,0-12.2,0-24.5-.54-36.55,0-21.36.44-42.77.59-64.13.69-22.39,0-44.73-.49-67.12,0-13.28.09-26.23-4.14-36.89-12.05-17.56-11.58-28.21-31.14-28.41-52.18-.69-17.39-.39-34.73,0-52.13.44-10.97.08-21.96-1.08-32.87-.49-4.71-.49-9.45,0-14.16,1.09-11.64,1.27-23.36.54-35.03-.61-10.16-.61-20.36,0-30.52.34-4.9-.59-9.41-.69-14.11-.64-25.87.29-51.73,1.47-77.5,1.52-26.65-.59-53.15-.54-79.76,0-14.11-.29-28.37-1.03-42.47C0,115.72,1.43,95.87.25,76.03c-.43-5.94-.3-11.91.39-17.83C3.14,33.79,19.52,13.02,42.68,4.9,51.51,1.4,61.02-.09,70.5.54c22.58,1.32,44.73.54,67.07.78,12.88,0,25.82,0,38.7.54,19.11.85,38.23.85,57.37,0,2.48-.22,4.97-.22,7.45,0,14.16,2.01,28.37.15,42.48.59,16.66.49,33.31-.59,49.97-.73,22.09,0,44.09,1.52,66.33.29,9.8-.54,19.89,0,29.79-1.08,4.51-.39,8.82,1.18,13.37.93,18.62-.98,37.25-1.24,55.9-.78,8.66.84,17.36,1.17,26.06.98,8.13-.98,16.33-1.21,24.5-.69,13.96,1.32,27.83-.59,41.69-.34,17.39.34,34.83,0,52.22.54,20.58.44,41.25-.44,61.88-.64,7.69,0,15.43-.29,23.12.34,7.69.64,15.87-.39,23.81,0,20.38.44,40.71.73,61.04.69,13.16.68,26.36.4,39.49-.83,1.24-.12,2.49-.12,3.72,0,16.93.51,33.87.13,50.75-1.13,5.19,0,10.44.59,15.63.39,20.92-.73,41.79,0,62.66,0,14.26.24,28.07,5.01,39.44,13.62,14.16,9.8,21.16,24.01,25.57,39.93.71,3.21.99,6.51.83,9.8,0,22.39.24,44.78-.54,67.17-.69,18.86,0,37.82-1.18,56.63-1.03,16.66,1.37,33.31-1.13,49.87,2.06,11.86,0,23.81.98,35.71.24,3.18.34,6.42.34,9.8,0,15.14,0,30.28.39,45.37,0,12.1-.73,24.5-.24,36.4.44,10.39-.59,20.87-.69,31.31,0,14.7-.49,29.39.78,44.09.17,2.72.17,5.46,0,8.18-.66,7.68-.66,15.4,0,23.07.58,6.19.69,12.41.34,18.62-.39,12.69,0,25.38-1.37,38.02-.09,2.5-.59,4.96-1.47,7.3-5.16,13.33-14.47,24.65-26.55,32.28-10.58,6.12-21.9,11.9-35.22,10.09-5.34-.69-10.88.73-16.22-1.13-1.65-.22-3.32-.07-4.9.44-2.45.5-4.95.67-7.45.49-14.35-1.47-28.76-.39-43.16-.69-20.14-.39-40.27.54-60.41-.64-11.76-.64-12.3.29-9.06,11.37,1.62,5.49,2.45,11.17,3.63,16.75,2.01,9.8,4.9,19.25,6.96,28.95,2.94,15.14,7.59,29.84,9.8,45.17,1.44,9.59,3.62,19.06,6.52,28.32,2.79,9.36,3.92,19.01,5.78,28.46,4.51,22.93,8.97,45.81,13.72,68.59,1.42,6.86,3.43,13.47,5.19,20.18.9,2.37,1.11,4.96.59,7.45ZM882.08,803.99c.25-5.1-.19-10.21-1.32-15.19-4.9-22.83-9.8-45.71-14.99-68.59-2.78-8.79-4.43-17.89-4.9-27.09-.06-1.71-.5-3.38-1.27-4.9-2.88-7.69-4.71-15.73-5.44-23.91-1.07-7.88-2.7-15.68-4.9-23.32-.65-2.14-1.11-4.34-1.37-6.56-2.01-19.6-6.81-38.16-10.63-57.17-1.18-5.88-.98-6.17,5.34-6.27,13.91-.24,27.88-.39,41.79-.59,4.46,0,8.97-.44,13.42,0,11.9.98,23.81,0,35.76,0,16.12,0,32.28-.88,48.45-.54,8.21.32,16.39-1.23,23.91-4.56,14.99-6.76,27.09-16.41,32.09-33.12,2.29-8.14,3.59-16.53,3.87-24.99.88-16.12-.98-32.28,1.27-48.4.17-.99.17-2,0-2.99-1.1-5.37-1.25-10.89-.44-16.31.72-11.68.85-23.39.39-35.08,0-16.85-2.06-33.71-.49-50.61.07-1.26.07-2.52,0-3.77-1.22-26.36,0-52.67.29-79.02,0-10.68.88-21.31,0-32.04-.69-8.92-.69-17.88,0-26.8.73-9.42.73-18.89,0-28.32-.44-6.96-1.08-13.86-.93-20.87.29-15.63,0-31.31-.59-46.98-.49-11.9-.69-23.81-.39-35.76.34-13.42,0-26.65-6.12-39.19-8.39-17.81-26.12-29.36-45.81-29.84-20.72-1.52-41.69.44-62.51-.34-4.21,0-8.48.29-12.69,0-22.63-.54-45.22-1.47-67.8-1.57-13.42,0-26.85,0-40.27.39-18.37.29-36.74-.88-55.11.73-3.96.37-7.94.37-11.9,0-15.63-1.52-31.31,0-46.93-.34-10.14,0-20.33-.49-30.52,0-11.37.64-22.73-1.22-34.29-.78-18.62.73-37.28,0-55.9-.34-5.92.6-11.88.81-17.83.64-5.69-.72-11.43-.85-17.15-.39-8.18.29-16.41.59-24.5.64h-84.9c-21.11,0-42.18-1.37-63.3-.64-17.15.64-34.29-.29-51.44,0-9.8,0-19.6-1.57-29.79-1.03-4.24.53-8.51.8-12.79.83-18.42-1.13-36.79-.59-55.16-.44-21.85,0-43.7.59-65.5.98-3.95.45-7.93.68-11.9.69-13.42-1.13-26.8.88-40.22.39-6.66,0-13.37.59-20.09.24-10.38-.59-20.78.97-30.52,4.61C25.74,23.82,12.28,43.39,11.76,65.35c-.24,24.84.34,49.73-.78,74.61-.44,10.14.93,20.43,0,30.52-1.71,16.12-.88,32.28-1.67,48.4-.88,19.3.49,38.7,1.03,58.05.34,13.67,0,27.34.83,41.01.78,9.68.78,19.42,0,29.1-1.08,11.41,0,22.83-.34,34.29,0,16.12,0,32.28-.59,48.45.49,6.18.49,12.39,0,18.57-.63,3.92-.78,7.9-.44,11.86.54,13.86.83,27.78,1.18,41.69.09,2.23-.09,4.47-.54,6.66-.63,3.24-.63,6.56,0,9.8.92,7.09,2.89,14.01,5.83,20.53,5.63,12.95,16.63,22.79,30.13,26.94,5.92,1.88,12.07,2.93,18.27,3.14h20.87c25.62,0,51.2-.78,76.77,0,11.37.49,22.78,0,34.29,0,18.08.73,36.25-.54,54.38,0,15.09.39,30.23-1.03,45.32.39,2.23.15,4.48.15,6.71,0,9.8,0,19.6,0,29.05-.78,13.42-.88,26.85.39,40.27,0,8.18,0,16.41-1.18,24.5-.78,15.63.69,31.26-.49,46.88.93,11.37.98,22.88,0,34.29,0h48.45c24.5,0,48.99-.59,73.83-.78,4.9,0,9.8.59,14.7.69,9.8.24,19.89.39,29.84.34,3.5-.03,6.84,1.49,9.11,4.16,8.08,8.38,16.26,16.71,24.5,24.99,12.2,12.39,24.5,24.84,36.65,37.14,3.14,3.18,6.81,5.83,9.8,9.06,12,12.54,24.5,24.5,36.35,37.43,7.35,8.03,15.48,15.38,23.17,23.07,4.36,4.41,8.33,9.26,12.93,13.47,8.23,7.59,16.26,15.33,24.5,23.12,9.11,8.92,17.2,18.67,25.92,27.83,6.27,6.66,13.18,12.69,19.01,19.94,4.02,5.95,9.25,10.99,15.33,14.8Z"/>
  </g>
</svg>